<?xml version="1.0"?><svg width="1600" height="1200" xmlns="http://www.w3.org/2000/svg">
 <title>cycle</title>
 <g>
  <title>Layer 1</title>
  <g id="svg_8">
   <path id="svg_2" fill="#231F20" d="m1215.370728,1166.167725c77.002319,0 139.473267,-62.178345 139.473267,-139.180786l0,-887.68988c0,-77.002449 -62.470947,-139.331867 -139.473267,-139.331867l-887.615265,0c-77.002609,0 -139.473541,62.329418 -139.473541,139.331867l0,887.679993c0,77.002808 62.470932,139.18103 139.473541,139.18103l887.615265,0l0,0.009644z"/>
   <path id="svg_3" fill="#FFFFFF" d="m327.755463,23.566761c-63.945709,0 -115.872009,51.926441 -115.872009,115.730297l0,887.679993c0,63.804199 51.9263,115.730469 115.872009,115.730469l887.615265,0c63.878052,0 115.804321,-51.92627 115.804321,-115.730469l0,-887.679993c0,-63.803856 -51.92627,-115.730297 -115.804321,-115.730297l-887.615265,0z"/>
   <path id="svg_4" fill="#231F20" d="m466.04892,958.312561c93.447906,0 169.2789,-75.821472 169.2789,-169.420593c0,-93.382141 -75.821411,-169.203613 -169.2789,-169.203613c-93.231232,0 -169.052612,75.821472 -169.052612,169.203613c0,93.599121 75.821381,169.420593 169.052612,169.420593zm-207.553467,-169.420593c0,-114.690674 93.079895,-207.553406 207.553467,-207.553406c114.765961,0 207.779755,92.862732 207.779755,207.553406c0,114.765991 -93.013794,207.628662 -207.779755,207.628662c-114.473572,0 -207.553467,-92.862671 -207.553467,-207.628662z"/>
   <path id="svg_5" fill="#231F20" d="m1077.294312,960.229126c93.230957,0 169.05249,-75.679993 169.05249,-169.279053c0,-93.44812 -75.821533,-169.279114 -169.05249,-169.279114c-93.447937,0 -169.279053,75.821594 -169.279053,169.279114c0,93.608704 75.821289,169.279053 169.279053,169.279053zm-207.779663,-169.279053c0,-114.766174 93.155151,-207.553284 207.779663,-207.553284c114.473511,0 207.553345,92.787109 207.553345,207.553284s-93.079834,207.628967 -207.553345,207.628967c-114.624512,0.009338 -207.779663,-92.853333 -207.779663,-207.628967z"/>
   <path id="svg_6" fill="#231F20" d="m870.09967,284.302429c43.070374,0 78.106567,-34.818665 78.106567,-77.888977s-35.026794,-78.181793 -78.106567,-78.181793s-78.181519,35.11142 -78.181519,78.181793s35.111511,77.888977 78.181519,77.888977z"/>
   <path id="svg_7" fill="#231F20" d="m873.347778,473.795074c-11.35791,0.21698 -23.527283,-5.457214 -32.52478,-19.618805l-50.670471,-79.286499l-104.664124,103.625793l96.988525,51.038513c39.907715,19.099426 33.931396,54.210754 33.931396,54.210754l0,219.656677c0,24.857849 -20.062317,45.138916 -44.996399,45.138916c-24.858337,0 -44.920959,-20.281067 -44.920959,-45.138916l0,-175.915955l-168.240417,-93.448181c-20.062256,-11.216003 -33.629395,-32.599915 -33.629395,-57.014557c0,-16.890228 6.193542,-32.307526 16.814941,-43.816223l165.002075,-165.370514c20.506165,-23.159088 49.122131,-19.467499 49.122131,-19.467499c34.592224,0 52.738098,30.164154 52.738098,30.164154l85.781921,134.384827l130.18335,-0.217163c46.836304,0 46.836304,61.074677 0,61.074677l-150.915894,0z"/>
  </g>
 </g>
</svg>